<svg width="150px" height="173px" viewBox="67 179 150 173" version="1.1" xmlns="http://www.w3.org/2000/svg" xmlns:xlink="http://www.w3.org/1999/xlink">
    <!-- Generator: Sketch 39.1 (31720) - http://www.bohemiancoding.com/sketch -->
    <desc>Created with Sketch.</desc>
    <defs></defs>
    <g id="logo2" stroke="none" stroke-width="1" fill="none" fill-rule="evenodd" transform="translate(67.000000, 179.000000)">
        <polygon id="Shape" fill="#F2849E" points="149.167 129.183 74.583 172.243 0 129.183 0 43.061 74.583 0 149.167 43.061"></polygon>
        <path d="M58.5,78.5 L85.5,73.5" id="Line" stroke="#FFFFFF" stroke-width="3" stroke-linecap="square"></path>
        <path d="M44.5,96 C52.5081289,96 59,89.7319865 59,82 C59,74.2680135 52.5081289,68 44.5,68 C36.4918711,68 30,74.2680135 30,82 C30,89.7319865 36.4918711,96 44.5,96 Z" id="Oval" stroke-opacity="0" stroke="#979797" fill="#FFFFFF"></path>
        <path d="M51.8970401,76.3522219 C53.2124319,77.8965005 54,79.8611178 54,82 C54,86.9705627 49.7467051,91 44.5,91 C39.2532949,91 35,86.9705627 35,82 C35,77.0294373 39.2532949,73 44.5,73 C45.1090253,73 45.7046653,73.0542927 46.2818215,73.158048 C44.3883947,73.6612951 43,75.3086216 43,77.2631579 C43,79.617635 45.0147186,81.5263158 47.5,81.5263158 C49.9852814,81.5263158 52,79.617635 52,77.2631579 C52,76.9505102 51.9644748,76.6457231 51.8970401,76.3522219 Z" id="Combined-Shape" stroke-opacity="0" stroke="#979797" fill="#F2849E"></path>
        <ellipse id="Oval-Copy" stroke-opacity="0" stroke="#979797" fill="#FFFFFF" cx="99.5" cy="71" rx="14.5" ry="14"></ellipse>
        <path d="M106.89704,65.3522219 C108.212432,66.8965005 109,68.8611178 109,71 C109,75.9705627 104.746705,80 99.5,80 C94.2532949,80 90,75.9705627 90,71 C90,66.0294373 94.2532949,62 99.5,62 C100.109025,62 100.704665,62.0542927 101.281822,62.158048 C99.3883947,62.6612951 98,64.3086216 98,66.2631579 C98,68.617635 100.014719,70.5263158 102.5,70.5263158 C104.985281,70.5263158 107,68.617635 107,66.2631579 C107,65.9505102 106.964475,65.6457231 106.89704,65.3522219 Z" id="Combined-Shape" stroke-opacity="0" stroke="#979797" fill="#F2849E"></path>
        <path d="M42.537533,104.290693 L80.5254952,104.903239 L118.796048,105.520341 C118.796048,105.520341 113.212742,126.649187 80.5254956,126.649187 C47.8382493,126.649187 42.537533,104.290693 42.537533,104.290693 Z" id="Path-2" fill="#FFFFFF" transform="translate(80.666790, 115.469940) rotate(-13.000000) translate(-80.666790, -115.469940) "></path>
    </g>
</svg>
